<?xml version="1.0" encoding="utf-8"?>
<!-- Generator: Adobe Illustrator 25.2.3, SVG Export Plug-In . SVG Version: 6.00 Build 0)  -->
<svg version="1.1" id="Layer_1" xmlns="http://www.w3.org/2000/svg" xmlns:xlink="http://www.w3.org/1999/xlink" x="0px" y="0px"
	 viewBox="0 0 115 115" style="enable-background:new 0 0 115 115;" xml:space="preserve">
<style type="text/css">
	.st0{fill:#032541;}
	.st1{fill:url(#SVGID_1_);}
</style>
<path class="st0" d="M107.1,115.1H8c-4.4,0-8-3.6-8-8V8c0-4.4,3.6-8,8-8h99.1c4.4,0,8,3.6,8,8v99.1
	C115.1,111.5,111.5,115.1,107.1,115.1z"/>
<g id="Layer_2_1_">
	<g id="Layer_1-2">
		
			<linearGradient id="SVGID_1_" gradientUnits="userSpaceOnUse" x1="9.9991" y1="60.055" x2="103.5734" y2="60.055" gradientTransform="matrix(1 0 0 -1 0 117.48)">
			<stop  offset="0" style="stop-color:#90CEA1"/>
			<stop  offset="0.56" style="stop-color:#3CBEC9"/>
			<stop  offset="1" style="stop-color:#00B3E5"/>
		</linearGradient>
		<path class="st1" d="M26.7,74.1h60.3c9.2,0,16.7-7.5,16.7-16.7c0,0,0,0,0,0l0,0c0-9.2-7.4-16.7-16.6-16.7c0,0,0,0,0,0H26.7
			c-9.2,0-16.7,7.5-16.7,16.7c0,0,0,0,0,0l0,0C10,66.6,17.5,74.1,26.7,74.1L26.7,74.1z"/>
	</g>
</g>
</svg>
